<svg version="1.1" id="Layer_1" xmlns="http://www.w3.org/2000/svg" xmlns:xlink="http://www.w3.org/1999/xlink" x="0px" y="0px"
	 width="100%" viewBox="0 0 302 252" enable-background="new 0 0 302 252" xml:space="preserve">
<path fill="#141A22" opacity="1.000000" stroke="none" 
	d="
M1.000000,252.000000 
	C1.000000,168.373596 1.000000,84.747185 1.000000,1.120778 
	C1.126327,1.080519 1.252652,1.004975 1.378981,1.004968 
	C101.830627,0.999956 202.282272,1.000000 302.866943,1.000000 
	C302.866943,84.999870 302.866943,168.999893 302.866943,253.000000 
	C268.237518,253.000000 233.587418,253.000000 198.220917,252.648926 
	C195.352676,252.199081 193.200851,252.014542 191.048996,252.014008 
	C127.699333,251.998108 64.349663,252.000504 1.000000,252.000000 
M102.380356,72.283752 
	C101.869972,72.295502 101.359589,72.307251 99.935738,72.222427 
	C85.795433,72.222427 71.655136,72.222427 57.474548,72.222427 
	C57.474548,77.530159 57.474548,82.128502 57.317833,87.471260 
	C58.291183,88.101654 59.261665,89.273491 60.238327,89.278664 
	C69.964523,89.330223 79.691734,89.189247 89.597260,89.426987 
	C89.597260,89.426987 89.904182,89.634102 89.619911,90.307907 
	C92.833481,96.799110 96.033623,103.296997 99.263100,109.780266 
	C109.412514,130.155472 119.559784,150.531769 129.745163,170.888992 
	C131.076248,173.549423 132.929169,175.031296 136.366379,175.012009 
	C164.340225,174.855057 192.315598,174.867264 220.289719,174.998291 
	C223.881210,175.015106 225.810577,173.457474 227.220459,170.520065 
	C229.360519,166.061356 231.553040,161.627533 233.753250,157.198044 
	C242.702072,139.182281 251.603378,121.142441 260.664062,103.183052 
	C262.670654,99.205688 261.250519,97.999237 257.416779,97.992439 
	C254.252975,97.986824 251.089188,97.980980 247.925385,97.983009 
	C239.838699,97.988182 236.141754,101.499084 234.597458,110.864830 
	C234.506287,111.259171 234.415115,111.653511 233.628357,112.134865 
	C228.789551,121.773956 224.168549,131.531448 219.019958,141.002136 
	C216.449432,145.730545 216.040405,151.948029 209.531036,154.345917 
	C191.227997,154.313248 172.924942,154.256393 154.621933,154.271240 
	C151.492218,154.273773 148.362747,154.582733 145.078873,154.968918 
	C145.078873,154.968918 145.207413,154.734238 144.897690,154.095871 
	C144.213196,153.402115 143.287888,152.826721 142.880081,151.996979 
	C135.982620,137.962708 129.238449,123.852409 122.250130,109.863953 
	C120.038338,105.436638 117.212532,101.316063 114.570648,96.443047 
	C114.416054,96.061493 114.261459,95.679932 114.449387,94.641640 
	C112.903893,92.185669 111.358406,89.729706 109.676537,86.591553 
	C109.506538,86.161209 109.336540,85.730858 109.503654,84.626793 
	C107.345879,80.658234 105.188095,76.689667 102.380356,72.283752 
M213.595749,211.897598 
	C219.455078,210.969345 223.849396,206.856964 224.706390,201.499832 
	C225.845428,194.379639 223.272675,189.212860 216.938843,185.900589 
	C211.396729,183.002319 205.617111,183.953751 201.004990,188.278900 
	C196.501404,192.502289 195.134140,197.857727 197.247223,203.211441 
	C199.010712,207.679398 202.034317,212.100601 208.953903,211.717239 
	C210.247635,211.693146 211.541351,211.669067 213.595749,211.897598 
M138.079391,211.711426 
	C139.971024,211.701797 141.862671,211.692169 144.510178,211.945358 
	C154.180527,210.877762 157.539536,199.049561 153.607529,191.808121 
	C149.872620,184.929657 141.714600,181.870178 135.319382,184.620209 
	C128.190994,187.685501 124.519287,195.351685 126.460243,203.117325 
	C127.660988,207.921432 132.220322,211.520248 138.079391,211.711426 
M151.043549,102.256561 
	C151.672745,105.672356 151.988708,109.182892 152.988068,112.486717 
	C156.404037,123.779625 163.869324,129.552582 174.661072,129.598343 
	C185.234238,129.643188 193.182800,123.610695 196.361923,112.429649 
	C199.474014,101.484406 199.511673,90.388931 195.856049,79.528549 
	C192.401810,69.266441 184.901688,63.985058 174.551086,64.001122 
	C164.235260,64.017136 156.286972,69.270157 153.497055,79.692070 
	C151.641495,86.623680 151.768219,94.085938 151.043549,102.256561 
z"/>
<path fill="#BBBBBB" opacity="1.000000" stroke="none" 
	d="
M1.000000,252.500000 
	C64.349663,252.000504 127.699333,251.998108 191.048996,252.014008 
	C193.200851,252.014542 195.352676,252.199081 197.752258,252.648926 
	C132.333328,253.000000 66.666664,253.000000 1.000000,252.500000 
z"/>
<path fill="#FDFDFD" opacity="1.000000" stroke="none" 
	d="
M234.323944,112.047859 
	C234.415115,111.653511 234.506287,111.259171 235.090973,110.563995 
	C236.144699,109.307770 236.647736,108.312798 237.276352,107.404785 
	C238.828445,105.162941 240.178421,101.354851 242.074036,101.048325 
	C247.458969,100.177574 253.076141,100.742958 259.366028,100.742958 
	C256.006165,107.544029 253.142166,113.378548 250.245834,119.196991 
	C242.187729,135.385056 234.085480,151.551254 226.073380,167.762024 
	C224.268463,171.413895 222.150177,173.478363 217.464722,173.429672 
	C191.500381,173.159882 165.529404,173.119049 139.566742,173.460419 
	C134.635544,173.525238 132.412048,171.421738 130.557068,167.665909 
	C119.524551,145.327972 108.553169,122.959084 97.354111,100.704834 
	C95.370522,96.763115 92.412323,93.311852 89.904182,89.634102 
	C89.904182,89.634102 89.597260,89.426987 89.623825,89.079468 
	C89.641289,88.420479 89.516106,88.166252 89.099022,87.607666 
	C88.016304,86.936890 87.109489,86.360146 86.202484,86.359833 
	C76.728889,86.356606 67.255264,86.445847 57.663658,86.505585 
	C57.545670,86.501709 57.474548,86.726845 57.474548,86.726845 
	C57.474548,82.128502 57.474548,77.530159 57.474548,72.222427 
	C71.655136,72.222427 85.795433,72.222427 100.458801,72.587448 
	C101.952759,74.057838 102.923653,75.163216 103.932686,76.630562 
	C104.894814,79.000732 105.818802,81.008926 106.660507,83.275330 
	C107.052055,83.980110 107.525894,84.426689 108.167412,85.019829 
	C108.335091,85.166382 108.727013,85.380890 108.727013,85.380890 
	C108.727013,85.380890 109.166550,85.300514 109.166550,85.300514 
	C109.336540,85.730858 109.506538,86.161209 109.658737,87.311478 
	C110.322372,89.692085 111.003815,91.352753 111.612900,93.281693 
	C112.026985,94.022247 112.513443,94.494530 113.160477,95.102386 
	C113.321060,95.237961 113.702362,95.418694 113.702362,95.418694 
	C113.702362,95.418694 114.106865,95.298370 114.106865,95.298370 
	C114.261459,95.679932 114.416054,96.061493 114.387939,96.916458 
	C114.324425,97.929054 114.443634,98.468231 114.518898,99.276947 
	C114.988525,100.014992 115.502106,100.483498 116.091454,101.308380 
	C117.281776,104.111855 118.396324,106.558968 119.478218,109.282150 
	C119.960709,110.047470 120.475861,110.536705 121.070282,111.374939 
	C123.079552,115.808327 125.009552,119.892715 126.812683,124.204620 
	C127.421768,125.379517 128.157730,126.326920 128.925690,127.640175 
	C129.909012,130.006851 130.860306,132.007660 131.714310,134.294647 
	C132.370544,135.493393 133.124054,136.405975 133.908676,137.681580 
	C134.877640,140.031250 135.815491,142.017853 136.665588,144.298264 
	C137.337265,145.522446 138.096680,146.452820 138.884995,147.729752 
	C139.155365,148.721436 139.396820,149.366592 139.577911,150.276215 
	C140.018753,151.005264 140.519974,151.469833 141.115814,152.295975 
	C142.542755,153.349792 143.875092,154.042007 145.207413,154.734238 
	C145.207413,154.734238 145.078873,154.968918 145.204102,155.238586 
	C146.697830,155.868393 148.065231,156.537415 149.434967,156.542206 
	C168.897888,156.610214 188.361282,156.618576 207.824036,156.529449 
	C209.353729,156.522446 210.879608,155.685013 212.720779,155.226364 
	C213.710251,154.533020 214.386200,153.846817 215.306793,153.006149 
	C216.025909,151.904343 216.500412,150.957031 217.096680,149.722580 
	C217.478653,148.650894 217.738861,147.866364 218.264679,146.960541 
	C218.853424,146.228912 219.176544,145.618561 219.652023,144.683624 
	C220.202911,143.247864 220.601456,142.136658 221.271545,140.941223 
	C221.790878,140.244019 222.038681,139.631027 222.455490,138.685715 
	C222.739990,137.871719 222.855515,137.390076 223.226898,136.807739 
	C223.763260,136.143585 224.043716,135.580109 224.509094,134.712463 
	C224.838089,133.714523 224.982178,133.020767 225.365433,132.156342 
	C226.107925,130.975357 226.611267,129.965012 227.233261,128.618484 
	C229.233826,124.185844 231.115707,120.089401 233.253418,115.876953 
	C233.817947,115.177361 234.126648,114.593773 234.579163,113.760086 
	C234.589966,113.022606 234.456970,112.535233 234.323944,112.047859 
z"/>

<path fill="#A5A8AB" opacity="1.000000" stroke="none" 
	d="
M89.762047,89.971008 
	C92.412323,93.311852 95.370522,96.763115 97.354111,100.704834 
	C108.553169,122.959084 119.524551,145.327972 130.557068,167.665909 
	C132.412048,171.421738 134.635544,173.525238 139.566742,173.460419 
	C165.529404,173.119049 191.500381,173.159882 217.464722,173.429672 
	C222.150177,173.478363 224.268463,171.413895 226.073380,167.762024 
	C234.085480,151.551254 242.187729,135.385056 250.245834,119.196991 
	C253.142166,113.378548 256.006165,107.544029 259.366028,100.742958 
	C253.076141,100.742958 247.458969,100.177574 242.074036,101.048325 
	C240.178421,101.354851 238.828445,105.162941 237.276352,107.404785 
	C236.647736,108.312798 236.144699,109.307770 235.245438,110.301529 
	C236.141754,101.499084 239.838699,97.988182 247.925385,97.983009 
	C251.089188,97.980980 254.252975,97.986824 257.416779,97.992439 
	C261.250519,97.999237 262.670654,99.205688 260.664062,103.183052 
	C251.603378,121.142441 242.702072,139.182281 233.753250,157.198044 
	C231.553040,161.627533 229.360519,166.061356 227.220459,170.520065 
	C225.810577,173.457474 223.881210,175.015106 220.289719,174.998291 
	C192.315598,174.867264 164.340225,174.855057 136.366379,175.012009 
	C132.929169,175.031296 131.076248,173.549423 129.745163,170.888992 
	C119.559784,150.531769 109.412514,130.155472 99.263100,109.780266 
	C96.033623,103.296997 92.833481,96.799110 89.762047,89.971008 
z"/>
<path fill="#F6F6F7" opacity="1.000000" stroke="none" 
	d="
M143.754303,211.682556 
	C141.862671,211.692169 139.971024,211.701797 137.556915,211.368683 
	C136.066299,210.410629 135.121185,209.754990 134.126221,209.186646 
	C128.334808,205.878571 126.492470,199.390030 129.546677,192.986084 
	C132.439407,186.920685 139.074829,184.630127 145.969269,187.316986 
	C151.448380,189.452271 154.962967,196.511841 152.216003,202.057220 
	C150.384079,205.755386 146.641678,208.507202 143.754303,211.682556 
z"/>
<path fill="#FBFBFB" opacity="1.000000" stroke="none" 
	d="
M212.835083,211.644989 
	C211.541351,211.669067 210.247635,211.693146 208.485291,211.342911 
	C207.232269,210.388412 206.512238,209.679596 205.652786,209.249283 
	C200.674698,206.756912 197.887665,201.637894 198.950577,196.795273 
	C200.408295,190.153885 204.321213,186.826172 210.632050,186.860840 
	C216.698303,186.894165 220.752808,190.042053 222.052139,195.727356 
	C223.361649,201.457199 220.875870,206.655838 215.756805,209.228760 
	C214.656128,209.781967 213.802505,210.826675 212.835083,211.644989 
z"/>
<path fill="#A4A6A9" opacity="1.000000" stroke="none" 
	d="
M213.215408,211.771286 
	C213.802505,210.826675 214.656128,209.781967 215.756805,209.228760 
	C220.875870,206.655838 223.361649,201.457199 222.052139,195.727356 
	C220.752808,190.042053 216.698303,186.894165 210.632050,186.860840 
	C204.321213,186.826172 200.408295,190.153885 198.950577,196.795273 
	C197.887665,201.637894 200.674698,206.756912 205.652786,209.249283 
	C206.512238,209.679596 207.232269,210.388412 208.100189,211.292175 
	C202.034317,212.100601 199.010712,207.679398 197.247223,203.211441 
	C195.134140,197.857727 196.501404,192.502289 201.004990,188.278900 
	C205.617111,183.953751 211.396729,183.002319 216.938843,185.900589 
	C223.272675,189.212860 225.845428,194.379639 224.706390,201.499832 
	C223.849396,206.856964 219.455078,210.969345 213.215408,211.771286 
z"/>
<path fill="#7A7E82" opacity="1.000000" stroke="none" 
	d="
M144.132233,211.813950 
	C146.641678,208.507202 150.384079,205.755386 152.216003,202.057220 
	C154.962967,196.511841 151.448380,189.452271 145.969269,187.316986 
	C139.074829,184.630127 132.439407,186.920685 129.546677,192.986084 
	C126.492470,199.390030 128.334808,205.878571 134.126221,209.186646 
	C135.121185,209.754990 136.066299,210.410629 137.153351,211.338776 
	C132.220322,211.520248 127.660988,207.921432 126.460243,203.117325 
	C124.519287,195.351685 128.190994,187.685501 135.319382,184.620209 
	C141.714600,181.870178 149.872620,184.929657 153.607529,191.808121 
	C157.539536,199.049561 154.180527,210.877762 144.132233,211.813950 
z"/>
<path fill="#A5A8AB" opacity="1.000000" stroke="none" 
	d="
M114.562836,99.007408 
	C114.443634,98.468231 114.324425,97.929054 114.436478,97.222496 
	C117.212532,101.316063 120.038338,105.436638 122.250130,109.863953 
	C129.238449,123.852409 135.982620,137.962708 142.880081,151.996979 
	C143.287888,152.826721 144.213196,153.402115 145.052551,154.415054 
	C143.875092,154.042007 142.542755,153.349792 141.078217,152.036682 
	C140.510101,150.947784 140.074203,150.479752 139.638290,150.011734 
	C139.396820,149.366592 139.155365,148.721436 138.899292,147.398071 
	C138.174255,145.814713 137.463791,144.909592 136.753342,144.004471 
	C135.815491,142.017853 134.877640,140.031250 133.918610,137.357819 
	C133.202164,135.783493 132.506866,134.895996 131.811584,134.008484 
	C130.860306,132.007660 129.909012,130.006851 128.928375,127.291115 
	C128.245865,125.709839 127.592705,124.843475 126.939545,123.977112 
	C125.009552,119.892715 123.079552,115.808327 121.040550,111.096725 
	C120.457985,109.981705 119.984436,109.493889 119.510880,109.006073 
	C118.396324,106.558968 117.281776,104.111855 116.053642,101.042068 
	C115.480988,99.948723 115.021912,99.478065 114.562836,99.007408 
z"/>
<path fill="#A8AAAD" opacity="1.000000" stroke="none" 
	d="
M212.407257,155.233521 
	C210.879608,155.685013 209.353729,156.522446 207.824036,156.529449 
	C188.361282,156.618576 168.897888,156.610214 149.434967,156.542206 
	C148.065231,156.537415 146.697830,155.868393 145.281250,155.129211 
	C148.362747,154.582733 151.492218,154.273773 154.621933,154.271240 
	C172.924942,154.256393 191.227997,154.313248 210.447479,154.660278 
	C211.711685,155.060944 212.059479,155.147232 212.407257,155.233521 
z"/>
<path fill="#A5A8AB" opacity="1.000000" stroke="none" 
	d="
M212.720779,155.226379 
	C212.059479,155.147232 211.711685,155.060944 210.842377,154.837952 
	C216.040405,151.948029 216.449432,145.730545 219.019958,141.002136 
	C224.168549,131.531448 228.789551,121.773956 233.976166,112.091362 
	C234.456970,112.535233 234.589966,113.022606 234.335510,113.850784 
	C233.631241,114.792038 233.314438,115.392502 232.997620,115.992958 
	C231.115707,120.089401 229.233826,124.185844 226.922440,128.783936 
	C226.037384,130.299393 225.581818,131.313202 225.126266,132.327011 
	C224.982178,133.020767 224.838089,133.714523 224.286041,134.805725 
	C223.575729,135.771591 223.273376,136.340012 222.971039,136.908417 
	C222.855515,137.390076 222.739990,137.871719 222.228210,138.791748 
	C221.554626,139.828568 221.277328,140.427017 221.000000,141.025467 
	C220.601456,142.136658 220.202911,143.247864 219.394135,144.774261 
	C218.655624,145.820267 218.327347,146.451035 217.999069,147.081818 
	C217.738861,147.866364 217.478653,148.650894 216.810181,149.880890 
	C215.955322,151.271088 215.508728,152.215851 215.062134,153.160614 
	C214.386200,153.846817 213.710251,154.533020 212.720779,155.226379 
z"/>
<path fill="#A5A8AB" opacity="1.000000" stroke="none" 
	d="
M89.274834,87.969284 
	C89.516106,88.166252 89.641289,88.420479 89.534523,88.917297 
	C79.691734,89.189247 69.964523,89.330223 60.238327,89.278664 
	C59.261665,89.273491 58.291183,88.101654 57.396191,87.099052 
	C57.474548,86.726845 57.545670,86.501709 57.945084,86.862579 
	C59.932766,87.478508 61.519463,87.941902 63.109577,87.953972 
	C71.830864,88.020157 80.552994,87.975723 89.274834,87.969284 
z"/>
<path fill="#A5A8AB" opacity="1.000000" stroke="none" 
	d="
M106.742798,83.017128 
	C105.818802,81.008926 104.894814,79.000732 103.942612,76.315369 
	C103.619705,74.665840 103.325012,73.693474 103.030319,72.721107 
	C105.188095,76.689667 107.345879,80.658234 109.335098,84.963654 
	C109.166550,85.300514 108.727013,85.380890 108.727013,85.380890 
	C108.727013,85.380890 108.335091,85.166382 108.136887,84.777115 
	C107.540062,83.930946 107.141426,83.474037 106.742798,83.017128 
z"/>
<path fill="#A5A8AB" opacity="1.000000" stroke="none" 
	d="
M114.278122,94.970001 
	C114.106865,95.298370 113.702362,95.418694 113.702362,95.418694 
	C113.702362,95.418694 113.321060,95.237961 113.131058,94.844757 
	C112.522453,93.972176 112.103859,93.492805 111.685265,93.013428 
	C111.003815,91.352753 110.322372,89.692085 109.726929,87.652573 
	C111.358406,89.729706 112.903893,92.185669 114.278122,94.970001 
z"/>
<path fill="#A8AAAD" opacity="1.000000" stroke="none" 
	d="
M102.705338,72.502426 
	C103.325012,73.693474 103.619705,74.665840 103.904472,75.953400 
	C102.923653,75.163216 101.952759,74.057838 100.915527,72.635735 
	C101.359589,72.307251 101.869972,72.295502 102.705338,72.502426 
z"/>
<path fill="#A8AAAD" opacity="1.000000" stroke="none" 
	d="
M89.099022,87.607666 
	C80.552994,87.975723 71.830864,88.020157 63.109577,87.953972 
	C61.519463,87.941902 59.932766,87.478508 58.063068,86.866463 
	C67.255264,86.445847 76.728889,86.356606 86.202484,86.359833 
	C87.109489,86.360146 88.016304,86.936890 89.099022,87.607666 
z"/>
<path fill="#A8AAAD" opacity="1.000000" stroke="none" 
	d="
M126.812683,124.204620 
	C127.592705,124.843475 128.245865,125.709839 128.896347,126.925262 
	C128.157730,126.326920 127.421768,125.379517 126.812683,124.204620 
z"/>
<path fill="#A8AAAD" opacity="1.000000" stroke="none" 
	d="
M225.365433,132.156342 
	C225.581818,131.313202 226.037384,130.299393 226.803772,129.120132 
	C226.611267,129.965012 226.107925,130.975357 225.365433,132.156342 
z"/>
<path fill="#A8AAAD" opacity="1.000000" stroke="none" 
	d="
M131.714310,134.294647 
	C132.506866,134.895996 133.202164,135.783493 133.887512,136.994781 
	C133.124054,136.405975 132.370544,135.493393 131.714310,134.294647 
z"/>
<path fill="#A8AAAD" opacity="1.000000" stroke="none" 
	d="
M136.665588,144.298264 
	C137.463791,144.909592 138.174255,145.814713 138.870392,147.051514 
	C138.096680,146.452820 137.337265,145.522446 136.665588,144.298264 
z"/>
<path fill="#A8AAAD" opacity="1.000000" stroke="none" 
	d="
M215.306763,153.006134 
	C215.508728,152.215851 215.955322,151.271088 216.688416,150.168030 
	C216.500412,150.957031 216.025909,151.904343 215.306763,153.006134 
z"/>
<path fill="#A8AAAD" opacity="1.000000" stroke="none" 
	d="
M221.271545,140.941223 
	C221.277328,140.427017 221.554626,139.828568 222.059219,139.124084 
	C222.038681,139.631027 221.790878,140.244019 221.271545,140.941223 
z"/>
<path fill="#A8AAAD" opacity="1.000000" stroke="none" 
	d="
M106.660507,83.275330 
	C107.141426,83.474037 107.540062,83.930946 107.969208,84.630569 
	C107.525894,84.426689 107.052055,83.980110 106.660507,83.275330 
z"/>
<path fill="#A8AAAD" opacity="1.000000" stroke="none" 
	d="
M139.577911,150.276215 
	C140.074203,150.479752 140.510101,150.947784 140.983612,151.675095 
	C140.519974,151.469833 140.018753,151.005264 139.577911,150.276215 
z"/>
<path fill="#A8AAAD" opacity="1.000000" stroke="none" 
	d="
M218.264679,146.960541 
	C218.327347,146.451035 218.655624,145.820267 219.241791,145.098846 
	C219.176544,145.618561 218.853424,146.228912 218.264679,146.960541 
z"/>
<path fill="#A8AAAD" opacity="1.000000" stroke="none" 
	d="
M223.226913,136.807739 
	C223.273376,136.340012 223.575729,135.771591 224.101135,135.109894 
	C224.043716,135.580109 223.763260,136.143585 223.226913,136.807739 
z"/>
<path fill="#A8AAAD" opacity="1.000000" stroke="none" 
	d="
M233.253448,115.876953 
	C233.314438,115.392502 233.631241,114.792038 234.191711,114.100883 
	C234.126648,114.593773 233.817947,115.177361 233.253448,115.876953 
z"/>
<path fill="#A8AAAD" opacity="1.000000" stroke="none" 
	d="
M119.478218,109.282150 
	C119.984436,109.493889 120.457985,109.981705 120.961273,110.747734 
	C120.475861,110.536705 119.960709,110.047470 119.478218,109.282150 
z"/>
<path fill="#A8AAAD" opacity="1.000000" stroke="none" 
	d="
M114.518890,99.276947 
	C115.021912,99.478065 115.480988,99.948723 115.977875,100.685692 
	C115.502106,100.483498 114.988525,100.014992 114.518890,99.276947 
z"/>
<path fill="#A8AAAD" opacity="1.000000" stroke="none" 
	d="
M111.612900,93.281693 
	C112.103859,93.492805 112.522453,93.972176 112.970474,94.709183 
	C112.513443,94.494530 112.026985,94.022247 111.612900,93.281693 
z"/>
<path fill="#171B20" opacity="1.000000" stroke="none" 
	d="
M166.896118,80.184990 
	C168.976837,76.178795 172.011978,74.459030 176.073364,75.114639 
	C180.186569,75.778618 182.307220,78.653008 183.156921,82.524208 
	C185.248459,92.053185 185.337112,101.606262 183.100235,111.116646 
	C182.095779,115.387184 179.645645,118.224197 174.849335,118.312195 
	C169.826202,118.404358 167.027222,115.540207 166.122375,111.061424 
	C164.065735,100.881607 163.684998,90.660767 166.896118,80.184990 
z"/>
</svg>